<svg xmlns="http://www.w3.org/2000/svg" viewBox="0 0 200 200" width="200" height="200">
  <!-- Earth/Ground -->
  <ellipse cx="100" cy="170" rx="60" ry="20" fill="#8B4513" />
  
  <!-- Plant stem -->
  <path d="M100,170 C100,120 100,80 100,50" stroke="#2ecc71" stroke-width="5" fill="none" />
  
  <!-- Leaves -->
  <g class="leaves">
    <!-- Leaf 1 -->
    <path d="M100,140 C80,130 60,135 55,120 C60,110 80,105 100,115" fill="#27ae60" />
    
    <!-- Leaf 2 -->
    <path d="M100,140 C120,130 140,135 145,120 C140,110 120,105 100,115" fill="#27ae60" />
    
    <!-- Leaf 3 -->
    <path d="M100,110 C80,100 60,105 55,90 C60,80 80,75 100,85" fill="#2ecc71" />
    
    <!-- Leaf 4 -->
    <path d="M100,110 C120,100 140,105 145,90 C140,80 120,75 100,85" fill="#2ecc71" />
    
    <!-- Leaf 5 -->
    <path d="M100,80 C80,70 60,75 55,60 C60,50 80,45 100,55" fill="#27ae60" />
    
    <!-- Leaf 6 -->
    <path d="M100,80 C120,70 140,75 145,60 C140,50 120,45 100,55" fill="#27ae60" />
  </g>
  
  <!-- Flower/top of plant -->
  <circle cx="100" cy="40" r="15" fill="#f1c40f" />
  <circle cx="100" cy="40" r="10" fill="#e67e22" />
  
  <!-- Animation for the plant - grows on load -->
  <style>
    @keyframes growPlant {
      0% { transform: scale(0.5) translateY(50px); opacity: 0.5; }
      100% { transform: scale(1) translateY(0); opacity: 1; }
    }
    
    @keyframes sway {
      0% { transform: rotate(0deg); }
      25% { transform: rotate(-2deg); }
      75% { transform: rotate(2deg); }
      100% { transform: rotate(0deg); }
    }
    
    @keyframes glowEffect {
      0% { filter: drop-shadow(0 0 2px rgba(46, 204, 113, 0.3)); }
      50% { filter: drop-shadow(0 0 8px rgba(46, 204, 113, 0.6)); }
      100% { filter: drop-shadow(0 0 2px rgba(46, 204, 113, 0.3)); }
    }
    
    svg {
      animation: growPlant 1s ease-out forwards;
    }
    
    .leaves {
      transform-origin: 100px 170px;
      animation: sway 4s ease-in-out infinite;
    }
    
    circle {
      animation: glowEffect 3s infinite;
    }
  </style>
</svg>
